HIERARCHY
ROOT hips
{
  OFFSET 0 9.313263304106702 1.2146308026317778
  CHANNELS 6 Xposition Yposition Zposition Yrotation Xrotation Zrotation
  JOINT spine
  {
    OFFSET -6.402521e-31 0.5173342420023708 0
    CHANNELS 3 Yrotation Xrotation Zrotation
    JOINT chest
    {
      OFFSET 0 1.130544299341115 0
      CHANNELS 3 Yrotation Xrotation Zrotation
      JOINT upperChest
      {
        OFFSET 0 1.0863555061129995 0
        CHANNELS 3 Yrotation Xrotation Zrotation
        JOINT neck
        {
          OFFSET 0 1.3773706506454462 0
          CHANNELS 3 Yrotation Xrotation Zrotation
          JOINT head
          {
            OFFSET 0 0.7374408940073979 0
            CHANNELS 3 Yrotation Xrotation Zrotation
            JOINT leftEye
            {
              OFFSET 0.25066580148932727 0.6408406698778757 0.15963719178883284
              CHANNELS 3 Yrotation Xrotation Zrotation
              End Site
              {
                OFFSET 0.25066580148932727 0.6408406698778757 0.15963719178883284
              }
            }
            JOINT rightEye
            {
              OFFSET -0.25066576739704244 0.6408406384191823 0.15963727561643756
              CHANNELS 3 Yrotation Xrotation Zrotation
              End Site
              {
                OFFSET -0.25066576739704244 0.6408406384191823 0.15963727561643756
              }
            }
          }
        }
        JOINT leftShoulder
        {
          OFFSET 0.3761817444281191 1.0539491987447769 0
          CHANNELS 3 Yrotation Xrotation Zrotation
          JOINT leftUpperArm
          {
            OFFSET 0.8702844380000002 0 0
            CHANNELS 3 Yrotation Xrotation Zrotation
            JOINT leftLowerArm
            {
              OFFSET 2.198527310000323 0 0
              CHANNELS 3 Yrotation Xrotation Zrotation
              JOINT leftHand
              {
                OFFSET 2.146852313968281 0 0
                CHANNELS 3 Yrotation Xrotation Zrotation
                JOINT leftIndexProximal
                {
                  OFFSET 0.6585177834681599 0.07380250427007962 0.18382213159631788
                  CHANNELS 3 Yrotation Xrotation Zrotation
                  JOINT leftIndexIntermediate
                  {
                    OFFSET 0.3323021288626682 -0.009606893929485771 -0.012820872253340998
                    CHANNELS 3 Yrotation Xrotation Zrotation
                    JOINT leftIndexDistal
                    {
                      OFFSET 0.2045908926985518 -0.0071133989147997845 -0.006828784783599051
                      CHANNELS 3 Yrotation Xrotation Zrotation
                      End Site
                      {
                        OFFSET 0.2045908926985518 -0.0071133989147997845 -0.006828784783599051
                      }
                    }
                  }
                }
                JOINT leftLittleProximal
                {
                  OFFSET 0.6110054258835662 0.07380246363125398 -0.29175655876064077
                  CHANNELS 3 Yrotation Xrotation Zrotation
                  JOINT leftLittleIntermediate
                  {
                    OFFSET 0.3144281999999998 -2.5124724523095665e-9 1.8658118799974588e-7
                    CHANNELS 3 Yrotation Xrotation Zrotation
                    JOINT leftLittleDistal
                    {
                      OFFSET 0.18116185580251631 0.002815456192251098 0.0034826415518049436
                      CHANNELS 3 Yrotation Xrotation Zrotation
                      End Site
                      {
                        OFFSET 0.18116185580251631 0.002815456192251098 0.0034826415518049436
                      }
                    }
                  }
                }
                JOINT leftMiddleProximal
                {
                  OFFSET 0.6637478005691111 0.07380246480054087 0.02046981859247815
                  CHANNELS 3 Yrotation Xrotation Zrotation
                  JOINT leftMiddleIntermediate
                  {
                    OFFSET 0.3705733999999994 -2.9611069152224445e-9 9.35054791928458e-8
                    CHANNELS 3 Yrotation Xrotation Zrotation
                    JOINT leftMiddleDistal
                    {
                      OFFSET 0.22861063500000056 -1.82673876025774e-9 -1.6740782024515788e-7
                      CHANNELS 3 Yrotation Xrotation Zrotation
                      End Site
                      {
                        OFFSET 0.22861063500000056 -1.82673876025774e-9 -1.6740782024515788e-7
                      }
                    }
                  }
                }
                JOINT leftRingProximal
                {
                  OFFSET 0.6561845547265777 0.07380246406440083 -0.13588087571513918
                  CHANNELS 3 Yrotation Xrotation Zrotation
                  JOINT leftRingIntermediate
                  {
                    OFFSET 0.3437531000000005 -2.746796123886952e-9 1.4935781944558357e-7
                    CHANNELS 3 Yrotation Xrotation Zrotation
                    JOINT leftRingDistal
                    {
                      OFFSET 0.1983118991198174 -0.002467117924596085 -0.004538141969590015
                      CHANNELS 3 Yrotation Xrotation Zrotation
                      End Site
                      {
                        OFFSET 0.1983118991198174 -0.002467117924596085 -0.004538141969590015
                      }
                    }
                  }
                }
                JOINT leftThumbProximal
                {
                  OFFSET 0.09767004258864787 -0.14930060425447422 -0.07008212897521154
                  CHANNELS 3 Yrotation Xrotation Zrotation
                  JOINT leftThumbIntermediate
                  {
                    OFFSET 0.36682123028154767 -0.015768465060082004 0.28693641268151077
                    CHANNELS 3 Yrotation Xrotation Zrotation
                    JOINT leftThumbDistal
                    {
                      OFFSET 0.21091084272403915 -0.016756648201192714 0.1933767059105508
                      CHANNELS 3 Yrotation Xrotation Zrotation
                      End Site
                      {
                        OFFSET 0.21091084272403915 -0.016756648201192714 0.1933767059105508
                      }
                    }
                  }
                }
              }
            }
          }
        }
        JOINT rightShoulder
        {
          OFFSET -0.37618174442811925 1.0539491987447769 0
          CHANNELS 3 Yrotation Xrotation Zrotation
          JOINT rightUpperArm
          {
            OFFSET -0.870284438 0 0
            CHANNELS 3 Yrotation Xrotation Zrotation
            JOINT rightLowerArm
            {
              OFFSET -2.1985273100003235 0 0
              CHANNELS 3 Yrotation Xrotation Zrotation
              JOINT rightHand
              {
                OFFSET -2.1468523139682802 0 0
                CHANNELS 3 Yrotation Xrotation Zrotation
                JOINT rightIndexProximal
                {
                  OFFSET -0.6585177834681599 0.07380250427007962 0.18382213159631788
                  CHANNELS 3 Yrotation Xrotation Zrotation
                  JOINT rightIndexIntermediate
                  {
                    OFFSET -0.3323021288626682 -0.009606893929485771 -0.012820872253340998
                    CHANNELS 3 Yrotation Xrotation Zrotation
                    JOINT rightIndexDistal
                    {
                      OFFSET -0.2045908926985518 -0.0071133989147997845 -0.006828784783599051
                      CHANNELS 3 Yrotation Xrotation Zrotation
                      End Site
                      {
                        OFFSET -0.2045908926985518 -0.0071133989147997845 -0.006828784783599051
                      }
                    }
                  }
                }
                JOINT rightLittleProximal
                {
                  OFFSET -0.6110054258835662 0.07380246363125398 -0.29175655876064077
                  CHANNELS 3 Yrotation Xrotation Zrotation
                  JOINT rightLittleIntermediate
                  {
                    OFFSET -0.3144281999999998 -2.5124724523095665e-9 1.8658118799974588e-7
                    CHANNELS 3 Yrotation Xrotation Zrotation
                    JOINT rightLittleDistal
                    {
                      OFFSET -0.18116185580251631 0.002815456192251098 0.0034826415518049436
                      CHANNELS 3 Yrotation Xrotation Zrotation
                      End Site
                      {
                        OFFSET -0.18116185580251631 0.002815456192251098 0.0034826415518049436
                      }
                    }
                  }
                }
                JOINT rightMiddleProximal
                {
                  OFFSET -0.6637478005691111 0.07380246480054087 0.02046981859247815
                  CHANNELS 3 Yrotation Xrotation Zrotation
                  JOINT rightMiddleIntermediate
                  {
                    OFFSET -0.3705733999999994 -2.9611069152224445e-9 9.35054791928458e-8
                    CHANNELS 3 Yrotation Xrotation Zrotation
                    JOINT rightMiddleDistal
                    {
                      OFFSET -0.22861063500000056 -1.82673876025774e-9 -1.6740782024515788e-7
                      CHANNELS 3 Yrotation Xrotation Zrotation
                      End Site
                      {
                        OFFSET -0.22861063500000056 -1.82673876025774e-9 -1.6740782024515788e-7
                      }
                    }
                  }
                }
                JOINT rightRingProximal
                {
                  OFFSET -0.6561845547265777 0.07380246406440083 -0.13588087571513918
                  CHANNELS 3 Yrotation Xrotation Zrotation
                  JOINT rightRingIntermediate
                  {
                    OFFSET -0.3437531000000005 -2.746796123886952e-9 1.4935781944558357e-7
                    CHANNELS 3 Yrotation Xrotation Zrotation
                    JOINT rightRingDistal
                    {
                      OFFSET -0.1983118991198174 -0.002467117924596085 -0.004538141969590015
                      CHANNELS 3 Yrotation Xrotation Zrotation
                      End Site
                      {
                        OFFSET -0.1983118991198174 -0.002467117924596085 -0.004538141969590015
                      }
                    }
                  }
                }
                JOINT rightThumbProximal
                {
                  OFFSET -0.09767004258864787 -0.14930060425447422 -0.07008212897521154
                  CHANNELS 3 Yrotation Xrotation Zrotation
                  JOINT rightThumbIntermediate
                  {
                    OFFSET -0.36682123028154767 -0.015768465060082004 0.28693641268151077
                    CHANNELS 3 Yrotation Xrotation Zrotation
                    JOINT rightThumbDistal
                    {
                      OFFSET -0.21091084272403915 -0.016756648201192714 0.1933767059105508
                      CHANNELS 3 Yrotation Xrotation Zrotation
                      End Site
                      {
                        OFFSET -0.21091084272403915 -0.016756648201192714 0.1933767059105508
                      }
                    }
                  }
                }
              }
            }
          }
        }
      }
    }
  }
  JOINT leftUpperLeg
  {
    OFFSET 0.7715603 -0.3993844658041501 0
    CHANNELS 3 Yrotation Xrotation Zrotation
    JOINT leftLowerLeg
    {
      OFFSET 0 -3.529830000249343 0
      CHANNELS 3 Yrotation Xrotation Zrotation
      JOINT leftFoot
      {
        OFFSET 0 -4.154939295409685 0.004208579085223096
        CHANNELS 3 Yrotation Xrotation Zrotation
        JOINT leftToes
        {
          OFFSET 0 -0.6353414391261847 1.10414981190622
          CHANNELS 3 Yrotation Xrotation Zrotation
          End Site
          {
            OFFSET 0 -0.6015820691747853 1.10414981190622
          }
        }
      }
    }
  }
  JOINT rightUpperLeg
  {
    OFFSET -0.7715603 -0.3993844658041501 0
    CHANNELS 3 Yrotation Xrotation Zrotation
    JOINT rightLowerLeg
    {
      OFFSET 0 -3.529830000249343 0
      CHANNELS 3 Yrotation Xrotation Zrotation
      JOINT rightFoot
      {
        OFFSET 0 -4.154939295409685 0.004208579085223096
        CHANNELS 3 Yrotation Xrotation Zrotation
        JOINT rightToes
        {
          OFFSET 0 -0.6353414391261847 1.10414981190622
          CHANNELS 3 Yrotation Xrotation Zrotation
          End Site
          {
            OFFSET 0 -0.6015820691747853 1.10414981190622
          }
        }
      }
    }
  }
}
MOTION
Frames: 4
Frame Time: 0.03333333333333333
-0.009201172400604593 8.740925355391068 1.3470932797739383 -16.024562108612276 -3.9337410659233676 0.24277710650854617 -1.805765786486537 -0.9436086364542422 -0.22756291569971632 -7.034600965354188 0.2462493014450132 3.028156666699256 0 0 0 1.61346815173867 2.3929796389899782 2.1839254320667276 10.037379504589074 -9.012827090317344 0.4632563703170703 0 0 0 0 0 0 0.9061526011653386 1.0590396182017745 -8.636902969240127 -38.32454781324037 16.81721721560223 -62.51520638120946 -92.56282463614922 -0.00006994406022306016 0.00007101068452720604 11.2894805220159 -8.945938058997553 25.01913824103665 5.337638957884132 2.514786759644884 -50.47128900483656 2.7215640248400264 0.5558589591006546 -23.066715956816406 -1.7845918033283439 0.23238093489535222 14.889563362497318 8.771139431871196 4.518167943013825 -33.782347936354576 -0.2768759772337498 1.303954263297129 -34.29773465556715 3.806696308362343 1.2819290860880492 -33.788039649625354 5.741771929901076 2.916661521456427 -46.41301802366073 3.1295927510566246 0.7467116651560842 -26.87350933843306 0.015652277823525306 3.7730187386403093e-7 -0.10980780578222639 6.365345337293384 3.31788781589749 -41.44630611172043 3.586099997254651 1.0026158965404832 -31.21918276750859 2.2391997363771394 0.3728088430094125 -18.890820555474786 -11.380268633032369 -18.36154050344737 -15.683732935245192 23.759592197677904 4.488716593208178 3.7663896532798247 27.735686267013538 1.378875402323506 4.321113012381781 -9.739742500353513 -0.37422515018193603 11.526807851899635 49.06781177499086 11.0493540186509 64.52210630304982 73.7043711965449 -0.000007404762836106269 -0.000013183220636492884 21.704359279142793 -17.98245112249412 -1.0719070436005933 -1.1068167522811916 -1.6261633072073176 44.05392840664628 -3.6441469120006382 1.0373523794887403 31.70096974721602 -0.24563337553923234 0.003959463249674168 1.9329327587276521 -8.500154414775139 4.433925713944759 34.77582301319196 -4.987699018824485 2.0308434440025662 46.09006385629769 -5.124204659005274 2.0718365494534394 46.088656162985345 -3.2998821949429673 0.5621697139311271 41.99160315811838 -3.976993877933967 1.2825074491108126 35.58722070674399 -2.1771364923310155 -0.744114532738827 15.481292613665985 -6.056255545338057 2.860990257902081 38.03128707370882 -4.6431744726122135 1.7497879050284586 41.36476490786095 -4.2769844320253325 0.30464903005767685 32.50841797576051 -4.335653790331533 -1.614629228808796 -6.622430494937682 -7.683587037565837 4.193259988806143 -0.6312484999450422 -29.11469972731036 0.5483539936754168 -5.232592242343668 7.3068484890154695 -5.479301312233716 3.495791633487254 10.636090469053356 24.479262174524465 5.283396163262176 9.75725755194344 -13.440202689919355 -8.894229546516716 -0.0000023042960911690966 0.0000035629393870417783 0.0000012806615889326384 -10.335193727803512 -8.686604232655881 -13.40507577790215 10.54779248769738 14.863702955878248 3.5130873836369267 7.861022835220457 -5.871519626417186 10.054075226671708 0.0000056789545797326994 -0.000034120187799852145 0.000004695752204606761
0.023418493907559998 8.729752627286043 1.3526260267391734 -15.396552379724532 -5.0133459808826295 0.4476609323570111 -1.6378672616674899 -0.7022117722683564 -0.6879695126238641 -6.600567171060566 1.1590843589191853 1.4385402425618101 0 0 0 1.4578109479605608 3.162451624407036 1.725561211684552 8.67227669975839 -7.336492546071882 0.8949236722479811 0 0 0 0 0 0 0.8350201087047426 1.0732056417256792 -8.61872845134515 -37.78133845503668 16.65167601956117 -61.836986304308105 -93.0942696877407 -0.00007071535643775686 0.00006511158752442647 13.26501917490247 -8.442261445332937 23.30811816980315 5.337638957884132 2.514786759644884 -50.47128900483656 2.7215640248400264 0.5558589591006546 -23.066715956816406 -1.7845918033283439 0.23238093489535222 14.889563362497318 8.771139431871196 4.518167943013825 -33.782347936354576 -0.2768759772337498 1.303954263297129 -34.29773465556715 3.806696308362343 1.2819290860880492 -33.788039649625354 5.741771929901076 2.916661521456427 -46.41301802366073 3.1295927510566246 0.7467116651560842 -26.87350933843306 0.015652277823525306 3.7730187386403093e-7 -0.10980780578222639 6.365345337293384 3.31788781589749 -41.44630611172043 3.586099997254651 1.0026158965404832 -31.21918276750859 2.2391997363771394 0.3728088430094125 -18.890820555474786 -11.380268633032369 -18.36154050344737 -15.683732935245192 23.759592197677904 4.488716593208178 3.7663896532798247 27.735686267013538 1.378875402323506 4.321113012381781 -9.710236737864385 -0.3692141404707928 11.529989659057119 48.23551439721256 10.337768341870772 65.87366418996433 73.20165480541509 0.000006167989339556575 -0.0000022919321301225626 21.846432656000555 -18.234761554937354 -0.9685616911461098 -1.1068167522811916 -1.6261633072073176 44.05392840664628 -3.6441469120006382 1.0373523794887403 31.70096974721602 -0.24563337553923234 0.003959463249674168 1.9329327587276521 -8.500154414775139 4.433925713944759 34.77582301319196 -4.987699018824485 2.0308434440025662 46.09006385629769 -5.124204659005274 2.0718365494534394 46.088656162985345 -3.2998821949429673 0.5621697139311271 41.99160315811838 -3.976993877933967 1.2825074491108126 35.58722070674399 -2.1771364923310155 -0.744114532738827 15.481292613665985 -6.056255545338057 2.860990257902081 38.03128707370882 -4.6431744726122135 1.7497879050284586 41.36476490786095 -4.2769844320253325 0.30464903005767685 32.50841797576051 -4.335653790331533 -1.614629228808796 -6.622430494937682 -7.683587037565837 4.193259988806143 -0.6312484999450422 -29.11469972731036 0.5483539936754168 -5.232592242343668 7.528187195397901 -4.731411451851448 3.28153383058127 10.696865879890064 25.155018031924534 5.39799768278258 8.905891594272228 -13.951049973134499 -8.613939534982636 -0.0000041969345674714875 -0.00002768405927887456 0.000002988199212549592 -10.691089250351729 -7.90184601013717 -14.174761271778443 10.56872689834734 15.493349959339676 3.6314970045133528 7.879524206102753 -6.338439534559668 10.233350254187735 -0.0000056751700758838826 -0.00003090271792142218 -0.000005976433436645101
0.0491324100982059 8.726719075983219 1.3647923236330735 -14.562078892265339 -5.958429492985538 0.659836785688171 -1.4035279848647892 -0.5725115542340318 -1.0520936554576363 -5.891745746846151 1.685238160697868 0.02184347902903837 0 0 0 1.2653407338083176 3.8120364362198234 1.2223061648476792 7.244357391952277 -4.73794505175243 0.9738558704759417 0 0 0 0 0 0 0.9614502100422209 1.0705146099243488 -9.170527132891403 -37.4723510247349 16.72415403235917 -61.52728119083926 -93.43899952301297 -0.0000731627514344898 0.00007838662390455445 15.278430112733696 -7.533509588597321 21.547015968422876 5.337638957884132 2.514786759644884 -50.47128900483656 2.7215640248400264 0.5558589591006546 -23.066715956816406 -1.7845918033283439 0.23238093489535222 14.889563362497318 8.771139431871196 4.518167943013825 -33.782347936354576 -0.2768759772337498 1.303954263297129 -34.29773465556715 3.806696308362343 1.2819290860880492 -33.788039649625354 5.741771929901076 2.916661521456427 -46.41301802366073 3.1295927510566246 0.7467116651560842 -26.87350933843306 0.015652277823525306 3.7730187386403093e-7 -0.10980780578222639 6.365345337293384 3.31788781589749 -41.44630611172043 3.586099997254651 1.0026158965404832 -31.21918276750859 2.2391997363771394 0.3728088430094125 -18.890820555474786 -11.380268633032369 -18.36154050344737 -15.683732935245192 23.759592197677904 4.488716593208178 3.7663896532798247 27.735686267013538 1.378875402323506 4.321113012381781 -9.709367043323786 -0.36916515419089585 11.51331815655014 47.20321483195098 10.414272745628553 67.08891289363034 73.00196857743036 0.000010756693335360568 -0.000008353263883879996 22.022896759635618 -18.61381479650264 -0.9399361405091736 -1.1068167522811916 -1.6261633072073176 44.05392840664628 -3.6441469120006382 1.0373523794887403 31.70096974721602 -0.24563337553923234 0.003959463249674168 1.9329327587276521 -8.500154414775139 4.433925713944759 34.77582301319196 -4.987699018824485 2.0308434440025662 46.09006385629769 -5.124204659005274 2.0718365494534394 46.088656162985345 -3.2998821949429673 0.5621697139311271 41.99160315811838 -3.976993877933967 1.2825074491108126 35.58722070674399 -2.1771364923310155 -0.744114532738827 15.481292613665985 -6.056255545338057 2.860990257902081 38.03128707370882 -4.6431744726122135 1.7497879050284586 41.36476490786095 -4.2769844320253325 0.30464903005767685 32.50841797576051 -4.335653790331533 -1.614629228808796 -6.622430494937682 -7.683587037565837 4.193259988806143 -0.6312484999450422 -29.11469972731036 0.5483539936754168 -5.232592242343668 7.581835652131105 -3.8220529300377284 3.0711766232141606 10.704443811453306 25.30306660684361 5.395099010548678 8.038122031777323 -14.211562779616768 -8.277886218443106 -8.393508739930923e-7 -0.000036408763910453016 -1.0550698123095283e-11 -11.118270274930182 -6.811813837159056 -14.895703177017628 10.557355094356275 15.501637474326177 3.619424389590438 7.61425937105719 -6.583409420398512 10.486496592226663 -0.00000103700636833933 -0.000015743073532984882 0.0000012806541591569026
0.06834155456586317 8.730915242975406 1.3775414320342851 -13.611291109809274 -6.5667928402104 0.8849513381213416 -1.1331578812069196 -0.5709211615605214 -1.3573738908852118 -5.007343006892452 1.7508846621244216 -1.1944828956822235 0 0 0 1.0879094713558146 4.28041189747252 0.6387165119631936 5.859622114088472 -2.1366772144518023 0.793891496457424 0 0 0 0 0 0 1.2937315594754313 1.0521022770920676 -10.217831132367175 -37.24657886556848 17.20669308394959 -61.4944227256896 -93.89373369563434 -0.00007675309916244663 0.00007273453580100358 17.19581924249477 -6.345855548722804 20.140318870255324 5.337638957884132 2.514786759644884 -50.47128900483656 2.7215640248400264 0.5558589591006546 -23.066715956816406 -1.7845918033283439 0.23238093489535222 14.889563362497318 8.771139431871196 4.518167943013825 -33.782347936354576 -0.2768759772337498 1.303954263297129 -34.29773465556715 3.806696308362343 1.2819290860880492 -33.788039649625354 5.741771929901076 2.916661521456427 -46.41301802366073 3.1295927510566246 0.7467116651560842 -26.87350933843306 0.015652277823525306 3.7730187386403093e-7 -0.10980780578222639 6.365345337293384 3.31788781589749 -41.44630611172043 3.586099997254651 1.0026158965404832 -31.21918276750859 2.2391997363771394 0.3728088430094125 -18.890820555474786 -11.380268633032369 -18.36154050344737 -15.683732935245192 23.759592197677904 4.488716593208178 3.7663896532798247 27.735686267013538 1.378875402323506 4.321113012381781 -9.617591280401808 -0.34995983144388454 11.506176620560204 46.21380648954393 11.200417193410818 67.94741924446758 73.18992343046249 -0.000006923131796914369 -0.000021390204653017806 22.22901299294946 -19.095893149735314 -0.997319089424372 -1.1068167522811916 -1.6261633072073176 44.05392840664628 -3.6441469120006382 1.0373523794887403 31.70096974721602 -0.24563337553923234 0.003959463249674168 1.9329327587276521 -8.500154414775139 4.433925713944759 34.77582301319196 -4.987699018824485 2.0308434440025662 46.09006385629769 -5.124204659005274 2.0718365494534394 46.088656162985345 -3.2998821949429673 0.5621697139311271 41.99160315811838 -3.976993877933967 1.2825074491108126 35.58722070674399 -2.1771364923310155 -0.744114532738827 15.481292613665985 -6.056255545338057 2.860990257902081 38.03128707370882 -4.6431744726122135 1.7497879050284586 41.36476490786095 -4.2769844320253325 0.30464903005767685 32.50841797576051 -4.335653790331533 -1.614629228808796 -6.622430494937682 -7.683587037565837 4.193259988806143 -0.6312484999450422 -29.11469972731036 0.5483539936754168 -5.232592242343668 7.441038184882057 -3.0395140928078526 2.81453670719642 10.663199608131015 25.001805469412574 5.294583432500291 7.242265563231017 -14.201622225673106 -7.914136478074276 0.0000033573511822089647 -0.000014814173251379838 -0.0000059764220375371225 -11.520792114079487 -5.780650553530521 -15.495175775793257 10.529590391543223 15.091983345972702 3.519573540272613 7.113737621411051 -6.638044507981245 10.623845975077575 -0.000005033384012261956 -0.00008374433492998459 0.0001792942374593181
